<svg width="136" height="62" viewBox="0 0 136 62" fill="none" xmlns="http://www.w3.org/2000/svg">
<path fill-rule="evenodd" clip-rule="evenodd" d="M16.917 18.172L23.0237 26.8537H14.6411L9.14122 19.0061H7.3585V26.8537H0V0.808716H12.4791C18.3204 0.808716 22.4548 4.56193 22.4548 9.90741C22.4548 13.7743 20.2928 16.7693 16.917 18.172ZM11.8722 7.48109H7.3585V12.3337H11.8722C13.617 12.3337 14.8687 11.3101 14.8687 9.90741C14.8687 8.50469 13.617 7.48109 11.8722 7.48109ZM69.7875 16.049L75.6288 0.808716H83.9355L73.9219 26.8537H65.6151L55.6015 0.808716H63.9083L69.7875 16.049ZM108.43 7.36736V0.808716H87.4547V26.8537H108.43V20.2951H94.8132V16.8452H107.216V10.2865H94.8132V7.36736H108.43ZM129.893 18.172L136 26.8537H127.617L122.117 19.0061H120.335V26.8537H112.976V0.808716H125.455C131.297 0.808716 135.431 4.56193 135.431 9.90741C135.431 13.7743 133.269 16.7693 129.893 18.172ZM124.848 7.48109H120.335V12.3337H124.848C126.593 12.3337 127.845 11.3101 127.845 9.90741C127.845 8.50469 126.593 7.48109 124.848 7.48109ZM23.0237 60.4209L16.917 51.7392C20.2928 50.3365 22.4548 47.3415 22.4548 43.4746C22.4548 38.1291 18.3204 34.3759 12.4791 34.3759H0V60.4209H7.3585V52.5733H9.14122L14.6411 60.4209H23.0237ZM7.3585 41.0482H11.8722C13.617 41.0482 14.8687 42.0718 14.8687 43.4746C14.8687 44.8773 13.617 45.9009 11.8722 45.9009H7.3585V41.0482ZM75.4444 60.4209H83.7512L73.7376 34.3759H65.4308L55.4172 60.4209H63.7239L65.0515 56.933H74.1169L75.4444 60.4209ZM67.1377 51.5117L69.6031 45.1806L72.0307 51.5117H67.1377ZM96.3289 60.4209H86.6188V34.3759H96.3289C105.432 34.3759 111.88 39.7593 111.88 47.3794C111.88 54.9996 105.432 60.4209 96.3289 60.4209ZM93.9773 41.0482V53.7485H97.5427C101.487 53.7485 104.294 51.0947 104.294 47.3794C104.294 43.6641 101.487 41.0482 97.5427 41.0482H93.9773Z" fill="white"/>
<path fill-rule="evenodd" clip-rule="evenodd" d="M39.6917 27.7271C39.6647 27.9506 39.6362 28.1755 39.6063 28.4017C32.1969 27.9097 26.3395 21.7469 26.3395 14.2167C26.3395 6.36503 32.7077 0 40.5634 0C48.419 0 54.7873 6.36503 54.7873 14.2167C54.7873 21.9603 48.5931 28.2579 40.8868 28.4298C40.8938 28.1714 40.8984 27.9162 40.9005 27.6642C40.9106 26.5025 39.8314 26.5737 39.6917 27.7271ZM25.9445 47.7839C25.9445 40.4277 31.5343 34.3765 38.7 33.642C38.4239 34.9452 38.1058 36.274 37.7452 37.619C35.5281 45.8893 32.2273 52.8254 29.0173 56.6104C27.0934 54.1857 25.9445 51.1189 25.9445 47.7839ZM34.9195 61.0013C33.8381 60.5719 32.8218 60.0137 31.8896 59.3457C34.4059 55.375 36.8235 49.6901 38.5694 43.1778C39.4678 39.8267 40.1025 36.5763 40.4807 33.5705C48.1922 33.7366 54.3923 40.0365 54.3923 47.7839C54.3923 55.0441 48.9473 61.0332 41.9162 61.8943C42.2755 59.3885 42.4623 57.0351 42.4808 54.9129C42.4908 53.7512 41.4116 53.8225 41.2719 54.9758C41.0027 57.1992 40.5919 59.5603 40.0364 62C39.2189 61.9925 38.4179 61.9162 37.639 61.7764C38.2618 60.0096 38.8404 58.1464 39.3595 56.2099C40.8871 50.5118 41.6524 45.105 41.6907 40.6963C41.7007 39.5346 40.6215 39.6059 40.4818 40.7592C40.1084 43.8441 39.4622 47.194 38.5353 50.6512C37.5198 54.4394 36.2769 57.9476 34.9195 61.0013ZM39.5147 20.2006L40.1292 19.8935C40.4036 19.7564 40.7265 19.7564 41.0009 19.8935L41.6154 20.2006C41.9813 20.3835 42.4118 20.1174 42.4118 19.7083C42.4118 19.4998 42.294 19.3092 42.1075 19.216L41.7336 19.0291C41.3947 18.8598 41.1806 18.5135 41.1806 18.1346V16.7839C41.1806 16.0161 42.0099 15.5348 42.6766 15.9155L44.6284 17.0303C45.0123 17.2495 45.4898 16.9723 45.4898 16.5303C45.4898 16.3775 45.4291 16.231 45.321 16.123L41.4737 12.2776C41.2861 12.0901 41.1806 11.8357 41.1806 11.5704V9.52361C41.1806 8.90833 41.0803 8.29305 40.565 8.29305C40.0497 8.29305 39.9495 8.90833 39.9495 9.52361V11.5704C39.9495 11.8357 39.844 12.0901 39.6564 12.2776L35.8091 16.123C35.701 16.231 35.6403 16.3775 35.6403 16.5303C35.6403 16.9723 36.1178 17.2495 36.5017 17.0303L38.4535 15.9155C39.1202 15.5348 39.9495 16.0161 39.9495 16.7839V18.1346C39.9495 18.5135 39.7354 18.8598 39.3965 19.0291L39.0226 19.216C38.8361 19.3092 38.7183 19.4998 38.7183 19.7083C38.7183 20.1174 39.1487 20.3835 39.5147 20.2006Z" fill="white"/>
</svg>
