<svg width="24" height="25" viewBox="0 0 24 25" fill="none" xmlns="http://www.w3.org/2000/svg">
<path d="M2.33333 23.6667C1.69167 23.6667 1.14217 23.4384 0.684833 22.9819C0.228278 22.5245 0 21.975 0 21.3334V5.00004C0 4.35837 0.228278 3.80926 0.684833 3.35271C1.14217 2.89537 1.69167 2.66671 2.33333 2.66671H3.5V0.333374H5.83333V2.66671H15.1667V0.333374H17.5V2.66671H18.6667C19.3083 2.66671 19.8578 2.89537 20.3152 3.35271C20.7717 3.80926 21 4.35837 21 5.00004V12H18.6667V9.66671H2.33333V21.3334H10.5V23.6667H2.33333ZM22.3125 17.8334L19.8333 15.3542L20.6792 14.5084C20.8931 14.2945 21.1653 14.1875 21.4958 14.1875C21.8264 14.1875 22.0986 14.2945 22.3125 14.5084L23.1583 15.3542C23.3722 15.5681 23.4792 15.8403 23.4792 16.1709C23.4792 16.5014 23.3722 16.7737 23.1583 16.9875L22.3125 17.8334ZM12.8333 24.8334V22.3542L19.0167 16.1709L21.4958 18.65L15.3125 24.8334H12.8333ZM2.33333 7.33337H18.6667V5.00004H2.33333V7.33337Z" fill="#5278FF"/>
</svg>
