<svg width="20" height="24" viewBox="0 0 20 24" fill="none" xmlns="http://www.w3.org/2000/svg">
<path d="M5.99999 23.6666V8.23742C4.23055 7.77075 2.81616 6.79347 1.75682 5.30559C0.696712 3.81847 0.166656 2.16103 0.166656 0.333252H2.49999C2.49999 1.94714 3.02032 3.32264 4.06099 4.45975C5.10088 5.59764 6.42777 6.16659 8.04166 6.16659H10.9583C11.5417 6.16659 12.0861 6.27353 12.5917 6.48742C13.0972 6.70131 13.5542 7.01242 13.9625 7.42075L19.2417 12.6999L17.6083 14.3333L13 9.72492V23.6666H10.6667V16.6666H8.33332V23.6666H5.99999ZM9.49999 4.99992C8.85832 4.99992 8.30921 4.77125 7.85266 4.31392C7.39532 3.85736 7.16666 3.30825 7.16666 2.66659C7.16666 2.02492 7.39532 1.47542 7.85266 1.01809C8.30921 0.56153 8.85832 0.333252 9.49999 0.333252C10.1417 0.333252 10.6912 0.56153 11.1485 1.01809C11.605 1.47542 11.8333 2.02492 11.8333 2.66659C11.8333 3.30825 11.605 3.85736 11.1485 4.31392C10.6912 4.77125 10.1417 4.99992 9.49999 4.99992Z" fill="#5278FF"/>
</svg>
