<svg width="21" height="22" viewBox="0 0 21 22" fill="none" xmlns="http://www.w3.org/2000/svg">
<path d="M10.5 16.8333L12.3083 12.8083L16.3333 11L12.3083 9.19167L10.5 5.16667L8.69167 9.19167L4.66667 11L8.69167 12.8083L10.5 16.8333ZM2.33333 21.5C1.69167 21.5 1.14217 21.2717 0.684833 20.8152C0.228278 20.3578 0 19.8083 0 19.1667V2.83333C0 2.19167 0.228278 1.64217 0.684833 1.18483C1.14217 0.728278 1.69167 0.5 2.33333 0.5H18.6667C19.3083 0.5 19.8578 0.728278 20.3152 1.18483C20.7717 1.64217 21 2.19167 21 2.83333V19.1667C21 19.8083 20.7717 20.3578 20.3152 20.8152C19.8578 21.2717 19.3083 21.5 18.6667 21.5H2.33333ZM2.33333 19.1667H18.6667V2.83333H2.33333V19.1667Z" fill="#5278FF"/>
</svg>
