<svg width="21" height="22" viewBox="0 0 21 22" fill="none" xmlns="http://www.w3.org/2000/svg">
<path d="M14 21.5L7 19.05L1.575 21.15C1.18611 21.3056 0.826389 21.2616 0.495833 21.0182C0.165278 20.7755 0 20.45 0 20.0417V3.70833C0 3.45556 0.0731111 3.23194 0.219333 3.0375C0.364778 2.84306 0.563889 2.69722 0.816667 2.6L7 0.5L14 2.95L19.425 0.85C19.8139 0.694444 20.1736 0.738 20.5042 0.980667C20.8347 1.22411 21 1.55 21 1.95833V18.2917C21 18.5444 20.9269 18.7681 20.7807 18.9625C20.6352 19.1569 20.4361 19.3028 20.1833 19.4L14 21.5ZM12.8333 18.6417V4.99167L8.16667 3.35833V17.0083L12.8333 18.6417ZM15.1667 18.6417L18.6667 17.475V3.65L15.1667 4.99167V18.6417ZM2.33333 18.35L5.83333 17.0083V3.35833L2.33333 4.525V18.35Z" fill="#5278FF"/>
</svg>
